<?xml version="1.0" encoding="UTF-8"?>
<svg width="77px" height="50px" viewBox="0 0 77 50" version="1.1" xmlns="http://www.w3.org/2000/svg" xmlns:xlink="http://www.w3.org/1999/xlink">
    <!-- Generator: sketchtool 55.2 (78181) - https://sketchapp.com -->
    <title>403B5978-E45F-48FF-A5C3-FA934678AF10</title>
    <desc>Created with sketchtool.</desc>
    <defs>
        <polygon id="path-1" points="0.361011186 0.305676856 0.541516779 0.305676856 0.541516779 0.611353712 0.361011186 0.611353712"></polygon>
        <polygon id="path-3" points="0.361011186 0.305676856 0.541516779 0.305676856 0.541516779 0.611353712 0.361011186 0.611353712"></polygon>
        <polygon id="path-5" points="0.211331102 0.10756486 0.316996653 0.10756486 0.316996653 0.21512972 0.211331102 0.21512972"></polygon>
        <polygon id="path-7" points="0.211331102 0.10756486 0.316996653 0.10756486 0.316996653 0.21512972 0.211331102 0.21512972"></polygon>
    </defs>
    <g id="Sprint1" stroke="none" stroke-width="1" fill="none" fill-rule="evenodd">
        <g id="03-2-Made-From-Her-sticky-menu" transform="translate(-73.000000, -13.000000)">
            <g id="Group-14">
                <g id="Group-16">
                    <g id="Group-12">
                        <g id="Group-22">
                            <g id="Group-24">
                                <g id="Group-23" transform="translate(73.000000, 13.000000)">
                                    <g id="Group-55-Copy">
                                        <g id="Group-54" transform="translate(0.000000, 0.649533)">
                                            <polygon id="Fill-1" fill="#32BBAC" points="76.7789563 -0.00010756486 57.6363738 9.60349827 76.7789563 19.2071041"></polygon>
                                            <g id="Group-8" transform="translate(0.000000, 48.627492)">
                                                <g id="Group-4">
                                                    <mask id="mask-2" fill="white">
                                                        <use xlink:href="#path-1"></use>
                                                    </mask>
                                                    <g id="Clip-3"></g>
                                                    <path d="" id="Fill-2" fill="#231F20" mask="url(#mask-2)"></path>
                                                </g>
                                                <g id="Group-7">
                                                    <mask id="mask-4" fill="white">
                                                        <use xlink:href="#path-3"></use>
                                                    </mask>
                                                    <g id="Clip-6"></g>
                                                    <path d="" id="Fill-5" fill="#231F20" mask="url(#mask-4)"></path>
                                                </g>
                                            </g>
                                            <polygon id="Fill-9" fill="#89D0C8" points="38.4960947 -0.00010756486 57.6363526 9.60349827 76.7789352 -0.00010756486"></polygon>
                                            <polygon id="Fill-10" fill="#FEFEFE" points="38.4960947 -0.00010756486 0.211352235 19.2071041 38.4960947 38.4160368 76.7789352 19.2071041"></polygon>
                                            <g id="Group-13" transform="translate(0.000000, 48.627492)">
                                                <mask id="mask-6" fill="white">
                                                    <use xlink:href="#path-5"></use>
                                                </mask>
                                                <g id="Clip-12"></g>
                                                <path d="" id="Fill-11" fill="#231F20" mask="url(#mask-6)"></path>
                                            </g>
                                            <polygon id="Fill-14" fill="#89D0C8" points="38.4960947 38.4159723 76.7789352 38.4159723 57.6363526 28.8123664"></polygon>
                                            <polygon id="Fill-15" fill="#32BBAC" points="57.6362892 28.8123879 76.7788718 38.4159938 76.7788718 19.2070611"></polygon>
                                            <g id="Group-18" transform="translate(0.000000, 48.627492)">
                                                <mask id="mask-8" fill="white">
                                                    <use xlink:href="#path-7"></use>
                                                </mask>
                                                <g id="Clip-17"></g>
                                                <path d="" id="Fill-16" fill="#231F20" mask="url(#mask-8)"></path>
                                            </g>
                                            <polygon id="Fill-19" fill="#89D0C8" points="0.211331102 38.4159723 38.4960736 38.4159723 19.3537023 28.8123664"></polygon>
                                            <polygon id="Fill-20" fill="#32BBAC" points="0.211331102 -0.00010756486 0.211331102 19.2071041 19.3537023 9.60349827"></polygon>
                                            <polygon id="Fill-21" fill="#32BBAC" points="0.211331102 38.4159723 19.3537023 28.8123664 0.211331102 19.2070396"></polygon>
                                            <polygon id="Fill-22" fill="#89D0C8" points="0.211331102 -0.00010756486 19.3537023 9.60349827 38.4960736 -0.00010756486"></polygon>
                                            <g id="Group-53" transform="translate(0.211331, 12.700828)" fill="#77787B">
                                                <path d="M24.7579247,2.74331268 L23.0184584,2.74331268 C22.7289348,2.2816443 22.5539526,2.03876284 22.2893661,1.89806801 C22.0165376,1.73758124 21.6655167,1.65733785 21.2324992,1.65733785 C20.7035375,1.65733785 20.2629121,1.79480574 19.9131592,2.07167769 C19.5612929,2.34231088 19.3886354,2.68501252 19.3886354,3.09504977 C19.3886354,3.66299223 19.8487032,4.11799159 20.7673595,4.46435044 L22.0294288,4.94000225 C23.057132,5.32271802 23.8088367,5.78675283 24.2836977,6.33619413 C24.75877,6.88542031 24.9986308,7.55942172 24.9986308,8.3584135 C24.9986308,9.42674769 24.6097816,10.3105006 23.8325058,11.0081663 C23.0505807,11.7105648 22.0809936,12.0620868 20.9218425,12.0620868 C19.8224981,12.0620868 18.913563,11.7643472 18.1986299,11.165211 C17.492784,10.5686562 17.1254906,9.59605478 17.0652612,8.22008509 L18.6844801,8.22008509 C18.7730279,8.90226143 19.0538869,9.40695575 19.2721919,9.66726272 C19.6661131,10.1698057 20.2413564,10.4204319 20.9949631,10.4204319 C21.5898601,10.4204319 22.0856429,10.2388624 22.4806207,9.8705603 C22.8736966,9.50591543 23.0700232,9.0410201 23.0700232,8.47824075 C23.0700232,8.25299994 23.0376895,8.04518463 22.9685842,7.85845203 C22.8999016,7.66935301 22.7927568,7.49681897 22.6482063,7.3384835 C22.5045011,7.18014802 22.3143031,7.03299929 22.0856429,6.89338011 C21.8567713,6.75720299 21.5835202,6.6240377 21.2671575,6.49754142 L20.0437618,6.03178558 C18.3097901,5.35907494 17.4441779,4.37550186 17.4441779,3.07956043 C17.4441779,2.20699428 17.8059767,1.47727427 18.5331671,0.890400398 C19.2609914,0.296857501 20.1659112,0.000839005908 21.2496171,0.000839005908 C22.7107603,0.000839005908 24.3441384,1.02550186 24.7579247,2.74331268" id="Fill-23"></path>
                                                <polygon id="Fill-25" points="34.458614 1.87481248 29.5654537 1.87481248 29.5654537 5.21513165 34.1312621 5.21513165 34.1312621 6.86345556 29.5654537 6.86345556 29.5654537 10.2024839 34.458614 10.2024839 34.458614 11.8512381 27.8443732 11.8512381 27.8443732 0.227349088 34.458614 0.227349088"></polygon>
                                                <polygon id="Fill-27" points="38.0549622 11.8513457 38.0549622 0.149364565 45.5240373 7.54832102 45.5240373 0.227456653 47.2482878 0.227456653 47.2482878 11.928147 39.7726614 4.5289754 39.7726614 11.8513457"></polygon>
                                                <path d="M52.3010242,7.97481569 L54.1848297,3.98415939 L56.0196063,7.97481569 L52.3010242,7.97481569 Z M54.1848297,0.150332648 L48.7988452,11.8536045 L50.5463421,11.8536045 L51.5647467,9.60485358 L56.7784963,9.60485358 L57.8233173,11.8536045 L59.5693348,11.8536045 L54.1848297,0.150332648 Z" id="Fill-29"></path>
                                                <path d="M0.891838384,35.173279 L0.891838384,31.8521063 L0.949954437,31.8521063 C1.90009907,31.8521063 3.01106668,32.1442525 3.01106668,33.518286 C3.01106668,34.8832841 1.90009907,35.173279 0.949954437,35.173279 L0.891838384,35.173279 Z M3.82617074,33.4922553 C3.82617074,32.0388389 2.77670048,31.0883958 1.12493659,31.0883958 L0.0657451059,31.0883958 L0.0657451059,35.9408618 L1.09894286,35.9408618 C2.79635428,35.9408618 3.82617074,34.994291 3.82617074,33.4922553 L3.82617074,33.4922553 Z" id="Fill-31"></path>
                                                <polygon id="Fill-33" points="10.3107388 35.1804213 8.15579556 35.1804213 8.15579556 33.669135 10.2739672 33.669135 10.2739672 32.8985403 8.15579556 32.8985403 8.15579556 31.8543007 10.3107388 31.8543007 10.3107388 31.0884389 7.32885696 31.0884389 7.32885696 35.9430561 10.3107388 35.9430561"></polygon>
                                                <polygon id="Fill-35" points="18.1662963 31.0883313 17.2670824 31.0883313 16.0037451 34.0261428 14.7112441 31.0883313 13.8238648 31.0883313 16.0037451 36.1417284"></polygon>
                                                <polygon id="Fill-37" points="24.7155105 35.1804213 22.5702885 35.1804213 22.5702885 33.669135 24.666059 33.669135 24.666059 32.8985403 22.5702885 32.8985403 22.5702885 31.8543007 24.7155105 31.8543007 24.7155105 31.0884389 21.7399686 31.0884389 21.7399686 35.9430561 24.7155105 35.9430561"></polygon>
                                                <polygon id="Fill-39" points="32.2388132 35.173279 30.0568196 35.173279 30.0568196 31.0883958 29.228613 31.0883958 29.228613 35.9430131 32.2388132 35.9430131"></polygon>
                                                <path d="M37.2580326,31.7841469 C38.2307896,31.7841469 38.9712938,32.5160182 38.9712938,33.5183075 C38.9712938,34.4887577 38.2242384,35.2574162 37.2580326,35.2574162 C36.3283871,35.2574162 35.572667,34.4767104 35.572667,33.5183075 C35.572667,32.5160182 36.2926721,31.7841469 37.2580326,31.7841469 M37.2580326,36.0387673 C38.6845175,36.0387673 39.801825,34.9330006 39.801825,33.5183075 C39.801825,32.1244821 38.6564105,30.991609 37.2580326,30.991609 C35.8771952,30.991609 34.7336826,32.1244821 34.7336826,33.5183075 C34.7336826,34.9330006 35.8600773,36.0387673 37.2580326,36.0387673" id="Fill-41"></path>
                                                <path d="M44.4171695,31.8475886 L44.4497145,31.8475886 C45.2314283,31.8475886 45.5672334,32.052177 45.5672334,32.5159967 C45.5672334,33.0379014 45.2314283,33.2392628 44.4723269,33.2392628 L44.4171695,33.2392628 L44.4171695,31.8475886 Z M44.4171695,34.0051246 L44.6331499,34.0051246 C45.7130518,34.0051246 46.3531737,33.4610615 46.3531737,32.5291196 C46.3531737,31.5367262 45.7432722,31.0883958 44.3656047,31.0883958 L43.5729018,31.0883958 L43.5729018,35.9408618 L44.4171695,35.9408618 L44.4171695,34.0051246 Z" id="Fill-43"></path>
                                                <polygon id="Fill-45" points="50.9632772 33.5963566 52.2997351 36.0694879 53.6431669 33.5963566 54.1106313 36.0157054 54.9677903 36.0157054 53.922758 31.029859 52.2870552 34.1909751 50.6857995 31.0122184 49.6331593 36.0157054 50.4829216 36.0157054"></polygon>
                                                <polygon id="Fill-47" points="61.4068376 35.1804213 59.5078163 35.1804213 59.5078163 33.669135 61.3518915 33.669135 61.3518915 32.8985403 59.5078163 32.8985403 59.5078163 31.8543007 61.4068376 31.8543007 61.4068376 31.0884389 58.6817231 31.0884389 58.6817231 35.9430561 61.4068376 35.9430561"></polygon>
                                                <polygon id="Fill-49" points="66.1176192 32.9665213 69.5540743 36.05729 69.5540743 31.0979046 68.7355889 31.0979046 68.7355889 34.2996802 65.2765214 31.0013113 65.2765214 35.9981293 66.1176192 35.9981293"></polygon>
                                                <polygon id="Fill-51" points="72.861237 31.0883313 72.861237 31.8522569 74.3477399 31.8522569 74.3477399 35.9429486 75.1488961 35.9429486 75.1488961 31.8522569 76.6324405 31.8522569 76.6324405 31.0883313"></polygon>
                                            </g>
                                        </g>
                                    </g>
                                </g>
                            </g>
                        </g>
                    </g>
                </g>
            </g>
        </g>
    </g>
</svg>