<svg width="63" height="60" viewBox="0 0 63 60" fill="none" xmlns="http://www.w3.org/2000/svg">
<path d="M27.5476 41.8294C27.5476 52.0725 35.4524 60 45.6209 60C53.6528 60 60.1053 54.6431 62.625 47.5294H52.8416C51.2603 49.9294 48.8677 51.4294 45.6209 51.4294C40.4077 51.4294 36.5627 47.3587 36.5627 41.8294C36.5627 36.3 40.4077 32.1863 45.6209 32.1863C48.8677 32.1863 51.3892 33.7725 52.8416 36H62.625C60.3595 29.1862 53.6528 23.6138 45.6209 23.6138C35.4524 23.6138 27.5476 31.5844 27.5476 41.8275V41.8294ZM12.7641 18.1294C12.7641 23.8725 15.8408 30.2156 22.5905 34.8L27.8037 26.8706C24.2148 24.2569 22.4204 21.4275 22.4204 17.9138C22.4204 12.7275 26.4373 8.91375 31.8617 8.91375C37.2861 8.91375 41.1329 12.9844 41.2189 18.5569H51.0023C50.7481 8.35687 42.1591 0 31.9477 0C21.1381 0 12.7641 7.92938 12.7641 18.1294ZM27.7607 57.2156L23.2316 49.5019C21.8633 50.3156 20.3268 50.8313 18.2763 50.8313C14.1323 50.8313 10.0313 47.1881 10.0313 41.2744C10.0313 38.2313 11.3136 35.5744 13.7491 32.8744H3.87788C1.57129 35.2706 0.375 39.2138 0.375 42.5569C0.375 52.3706 8.06489 60 17.9343 60C21.5661 60 24.9419 58.9706 27.7607 57.2138V57.2156Z" fill="black"/>
</svg>
