<svg height="428pt" preserveAspectRatio="xMidYMid meet" viewBox="0 0 428 428" width="428pt" xmlns="http://www.w3.org/2000/svg"><path d="m2794 3345c-77-33-1282-760-1310-791-64-71-64-65-64-937 0-433 3-787 8-787 4 0 93 51 197 113l190 112 5 626c4 557 7 628 21 650 10 14 158 109 349 224 183 110 337 202 341 203 5 2 9-96 9-218 0-182-3-228-16-256s-63-61-325-216l-308-183-1-187c0-104 3-188 8-188 4 0 205 118 446 263 388 231 444 267 473 308 61 86 63 106 63 690 0 299-4 538-9 552-12 30-39 38-77 22z" transform="matrix(.1 0 0 -.1 0 428)"/></svg>