<svg xmlns="http://www.w3.org/2000/svg" xmlns:xlink="http://www.w3.org/1999/xlink" width="177.814" height="69.998" viewBox="0 0 177.814 69.998">
  <defs>
    <clipPath id="clip-path">
      <rect id="Rectangle_20815" data-name="Rectangle 20815" width="177.814" height="69.998" fill="none"/>
    </clipPath>
  </defs>
  <g id="Group_83260" data-name="Group 83260" clip-path="url(#clip-path)">
    <path id="Path_82455" data-name="Path 82455" d="M101.179,96.487a13.36,13.36,0,0,1-3.549-.554l.346-1.523a13.445,13.445,0,0,0,2.926.415c1.142,0,2.476-.485,2.476-1.679,0-.762-.312-1.108-1.524-1.489-2.129-.659-4.1-1.056-4.1-3.636,0-2.095,1.507-3.375,3.913-3.375a14.319,14.319,0,0,1,3.445.519l-.036.161a1.427,1.427,0,0,1-1.585,1.109,11.778,11.778,0,0,0-1.461-.128c-1.022,0-2.078.415-2.078,1.558,0,.865.4,1.16,1.939,1.541,2.355.589,3.688,1.177,3.688,3.393,0,2.32-1.645,3.688-4.4,3.688" transform="translate(-57.395 -49.762)" fill="#fff"/>
    <path id="Path_82456" data-name="Path 82456" d="M126.436,96.529V86.41a1.428,1.428,0,0,1,1.428-1.428h.771V96.529Z" transform="translate(-74.33 -49.959)" fill="#fff"/>
    <path id="Path_82457" data-name="Path 82457" d="M148.858,96.529l-4.38-9.366.086,9.366h-1.835V84.982h2.908l4.38,9.435-.073-7.994a1.427,1.427,0,0,1,1.428-1.441h.394V96.529Z" transform="translate(-83.908 -49.959)" fill="#fff"/>
    <path id="Path_82458" data-name="Path 82458" d="M212.027,96.529V91.266H207.49v5.263h-2.2V84.982h2.2v4.726h4.537v-3.3a1.428,1.428,0,0,1,1.428-1.428h.769V96.529Z" transform="translate(-120.687 -49.959)" fill="#fff"/>
    <path id="Path_82459" data-name="Path 82459" d="M242.51,95.561l-.607-1.785h-4.518l-.917,2.753h-1.992l4.052-11.547h2.51l4.172,11.547h-1.348a1.427,1.427,0,0,1-1.351-.968M239.6,86.713,237.835,92.3h3.583Z" transform="translate(-137.844 -49.959)" fill="#fff"/>
    <path id="Path_82460" data-name="Path 82460" d="M312.026,96.487a13.353,13.353,0,0,1-3.548-.554l.346-1.523a13.443,13.443,0,0,0,2.926.415c1.142,0,2.475-.485,2.475-1.679,0-.762-.311-1.108-1.523-1.489-2.129-.659-4.1-1.056-4.1-3.636,0-2.095,1.506-3.375,3.913-3.375a14.336,14.336,0,0,1,3.446.519l-.036.161a1.429,1.429,0,0,1-1.587,1.109,11.764,11.764,0,0,0-1.46-.128c-1.021,0-2.077.415-2.077,1.558,0,.865.4,1.16,1.939,1.541,2.354.589,3.688,1.177,3.688,3.393,0,2.32-1.645,3.688-4.4,3.688" transform="translate(-181.349 -49.762)" fill="#fff"/>
    <path id="Path_82461" data-name="Path 82461" d="M364.53,95.561l-.606-1.784h-4.519l-.917,2.753H356.5l4.051-11.547h2.511l4.172,11.547h-1.348a1.427,1.427,0,0,1-1.352-.968m-2.909-8.847L359.855,92.3h3.584Z" transform="translate(-209.579 -49.959)" fill="#fff"/>
    <path id="Path_82462" data-name="Path 82462" d="M182.7,90.37h-4.566a1.8,1.8,0,0,0,1.719,1.582h.761v2.564a6.73,6.73,0,0,1-1.939.277,2.235,2.235,0,0,1-2.026-.935,5.8,5.8,0,0,1-.779-3.341c0-2.873.97-4.258,3.029-4.258a14.846,14.846,0,0,1,3.134.415l.329-1.489a14.161,14.161,0,0,0-3.74-.623c-3.185,0-5.055,2.13-5.055,5.972,0,3.826,1.748,5.955,4.761,5.955a11.781,11.781,0,0,0,4.373-1.021Z" transform="translate(-102.038 -49.712)" fill="#fff"/>
    <path id="Path_82463" data-name="Path 82463" d="M288.62,91.315c2.2,0,2.125-1.558,2.125-1.558h-5.112V86.54h3c2.2,0,2.125-1.558,2.125-1.558h-7.324V96.529h5.186c2.2,0,2.125-1.558,2.125-1.558h-5.112V91.315Z" transform="translate(-166.626 -49.959)" fill="#fff"/>
    <path id="Path_82464" data-name="Path 82464" d="M418.881,91.315c2.2,0,2.125-1.558,2.125-1.558h-5.111V86.54h3c2.2,0,2.125-1.558,2.125-1.558H413.7V96.529h5.186c2.2,0,2.125-1.558,2.125-1.558h-5.111V91.315Z" transform="translate(-243.204 -49.959)" fill="#fff"/>
    <path id="Path_82465" data-name="Path 82465" d="M342.03,84.982h-9.624V86.54h3.48v9.989h2.2V86.54h1.82c2.2,0,2.125-1.558,2.125-1.558" transform="translate(-195.416 -49.959)" fill="#fff"/>
    <path id="Path_82466" data-name="Path 82466" d="M393.719,84.982H384.1V86.54h3.48v9.989h2.2V86.54h1.82c2.2,0,2.125-1.558,2.125-1.558" transform="translate(-225.803 -49.959)" fill="#fff"/>
    <path id="Path_82467" data-name="Path 82467" d="M26.646,36.091H23.437L12.672,54.736c-.954,1.665-1.686,3.491-1.479,4.509-1.5-2.453.254-4.868.95-6.073L22,36.091H18.8l-8.12,14.065c-.953,1.665-1.686,3.491-1.479,4.509-1.5-2.453.254-4.868.95-6.073l7.217-12.5H14.158L8.682,45.576C7.728,47.24,7,49.066,7.2,50.085c-1.5-2.453.254-4.868.95-6.073l4.572-7.92H9.518l-2.831,4.9C5.733,42.66,5,44.486,5.207,45.5c-1.5-2.453.254-4.868.95-6.073l1.928-3.34h-3.5C1.332,36.091,0,34.386,0,32.56A6.413,6.413,0,0,1,1.054,29.4L15.423,4.509A42.814,42.814,0,0,0,17.738,0c.9,1.922-.5,4.464-.826,5.034L2.845,29.4a7.067,7.067,0,0,0-1.134,2.811c-.068,1.428,1.36,1.669,2.635,1.7L17.961,10.326a42.8,42.8,0,0,0,2.315-4.509c.87,1.851-.538,4.535-.826,5.034L6.139,33.907H9.347L20.111,15.262a42.8,42.8,0,0,0,2.315-4.509c.869,1.851-.693,4.18-.981,4.679L10.779,33.907h3.208l8.12-14.065a42.814,42.814,0,0,0,2.315-4.509c.819,1.744-.755,4.287-.981,4.679L15.418,33.907h3.208L24.1,24.422a42.784,42.784,0,0,0,2.315-4.509c.819,1.744-.755,4.287-.981,4.679l-5.378,9.314h3.208L26.1,29a42.814,42.814,0,0,0,2.315-4.509c.819,1.744-.755,4.287-.981,4.679L24.7,33.907h4.339a4.875,4.875,0,0,1,3.75,1.317l.008.008c.383.5.927,1.919-.93,5.134l-3.5,6.059L17.36,65.489c-.953,1.665-1.686,3.491-1.479,4.509-1.5-2.453.1-5.222.8-6.428l.324-.56L29.94,40.6a7.067,7.067,0,0,0,1.134-2.811,1.583,1.583,0,0,0-.081-.613c-.318-.889-1.489-1.062-2.555-1.086h0l-2.608,4.517L14.822,59.672c-.953,1.665-1.686,3.491-1.479,4.509-1.5-2.453.1-5.222.8-6.428Z" transform="translate(0)" fill="#c5a153"/>
    <path id="Path_82468" data-name="Path 82468" d="M4.769,33.475c-.451-1.1,1.031-3.514,1.74-4.752L19.136,6.852l.244-.423c.7-1.206,2.3-3.975.8-6.428.9,1.922-.5,4.464-.826,5.034L5.283,29.4A7.067,7.067,0,0,0,4.15,32.209a1.314,1.314,0,0,0,.619,1.266" transform="translate(-2.438 -0.001)" fill="#626366"/>
    <path id="Path_82469" data-name="Path 82469" d="M26.154,49.245h.835l9.862-17.081c.7-1.206,2.45-3.62.95-6.073.87,1.851-.693,4.181-.981,4.679Z" transform="translate(-15.375 -15.338)" fill="#626366"/>
    <path id="Path_82470" data-name="Path 82470" d="M37.413,55.78h.835l7.217-12.5c.7-1.206,2.45-3.62.95-6.073.819,1.744-.755,4.287-.981,4.679Z" transform="translate(-21.994 -21.873)" fill="#626366"/>
    <path id="Path_82471" data-name="Path 82471" d="M48.671,62.313h.835l4.573-7.92c.7-1.206,2.45-3.62.95-6.073.819,1.744-.755,4.287-.981,4.679Z" transform="translate(-28.613 -28.407)" fill="#626366"/>
    <path id="Path_82472" data-name="Path 82472" d="M59.929,68.847h.835l1.928-3.34c.7-1.206,2.45-3.62.95-6.073.819,1.744-.755,4.287-.981,4.679Z" transform="translate(-35.231 -34.94)" fill="#626366"/>
    <path id="Path_82473" data-name="Path 82473" d="M14.9,42.205h.835L28.237,20.544c.7-1.206,2.3-3.975.8-6.428.87,1.851-.538,4.535-.826,5.034L14.9,42.205" transform="translate(-8.757 -8.299)" fill="#626366"/>
    <path id="Path_82474" data-name="Path 82474" d="M56.222,87.7a3.222,3.222,0,0,0-.823-2.2c.384.506.923,1.921-.931,5.132l-3.5,6.059L39.965,115.751c-.953,1.665-1.686,3.491-1.48,4.509a42.734,42.734,0,0,1,2.315-4.509L55.169,90.863A6.425,6.425,0,0,0,56.222,87.7" transform="translate(-22.604 -50.262)" fill="#626366"/>
    <path id="Path_82475" data-name="Path 82475" d="M39.911,88.055h2.373l.277-.479H39.353l-.277.479L28.588,106.221c-.953,1.665-1.686,3.491-1.479,4.509a42.784,42.784,0,0,1,2.315-4.509Z" transform="translate(-15.916 -51.484)" fill="#626366"/>
    <path id="Path_82476" data-name="Path 82476" d="M32.426,88.055H34.8l.277-.479H31.867l-.277.479L23.747,101.64c-.953,1.665-1.686,3.491-1.479,4.509a42.815,42.815,0,0,1,2.315-4.509Z" transform="translate(-13.07 -51.484)" fill="#626366"/>
    <path id="Path_82477" data-name="Path 82477" d="M24.94,88.055h2.372l.277-.479H24.381l-.277.479-5.2,9.005c-.953,1.665-1.686,3.491-1.479,4.509a42.814,42.814,0,0,1,2.315-4.509Z" transform="translate(-10.224 -51.484)" fill="#626366"/>
    <path id="Path_82478" data-name="Path 82478" d="M17.454,88.055h2.372l.277-.479H16.895l-.277.479L14.064,92.48c-.953,1.665-1.686,3.491-1.479,4.509A42.8,42.8,0,0,1,14.9,92.48Z" transform="translate(-7.377 -51.484)" fill="#626366"/>
    <path id="Path_82479" data-name="Path 82479" d="M2.743,85.073A5.216,5.216,0,0,0,6.195,86.1H9.7l-.276.479H7.409c-3.491,0-4.666-1.51-4.666-1.51" transform="translate(-1.613 -50.013)" fill="#626366"/>
    <path id="Path_82480" data-name="Path 82480" d="M47.984,88.055a2.636,2.636,0,0,1,1.991.607c-.317-.889-1.489-1.062-2.555-1.086h0l-2.608,4.517L33.805,111.156c-.954,1.665-1.686,3.491-1.48,4.509a42.8,42.8,0,0,1,2.315-4.509l13.337-23.1Z" transform="translate(-18.983 -51.484)" fill="#626366"/>
  </g>
</svg>
