<?xml version="1.0" encoding="UTF-8"?>
<svg width="292px" height="642px" viewBox="0 0 292 642" version="1.1" xmlns="http://www.w3.org/2000/svg" xmlns:xlink="http://www.w3.org/1999/xlink">
    <!-- Generator: Sketch 55.2 (78181) - https://sketchapp.com -->
    <title>LPN-New2022-04</title>
    <desc>Created with Sketch.</desc>
    <g id="Page-1" stroke="none" stroke-width="1" fill="none" fill-rule="evenodd">
        <g id="LPN-New2022-04" fill-rule="nonzero">
            <path d="M279.66,418.74 L271.26,457 L20.75,457 L12.35,418.74 L0.35,418.74 L0.35,472.27 L291.7,472.27 L291.7,418.74 L279.66,418.74 Z M50.08,307.14 C55.01,308.98 61.53,311.2 69.33,313.41 L69.33,428.15 C74.65,426.71 79.72,425.09 84.59,423.39 L84.59,317.27 C90.59,318.6 96.98,319.83 103.85,320.89 L103.85,416.35 C108.94,414.5 113.99,412.76 119.11,411.35 L119.11,322.79 C125.29,323.39 131.7,323.79 138.37,324.02 L138.37,407.66 C140.86,407.44 143.37,407.3 146,407.3 C148.63,407.3 151.14,407.44 153.63,407.66 L153.63,324 C160.3,323.81 166.72,323.37 172.89,322.77 L172.89,411.3 C178.01,412.74 183.06,414.48 188.15,416.3 L188.15,320.89 C195.02,319.83 201.46,318.6 207.41,317.27 L207.41,423.39 C212.28,425.09 217.35,426.71 222.67,428.15 L222.67,313.41 C230.47,311.2 236.99,308.98 241.93,307.14 L241.93,432.14 C246.990672,432.841333 252.084067,433.281915 257.19,433.46 L257.19,283.68 C246.214146,289.490027 234.643979,294.099989 222.68,297.43 L222.68,189.43 L207.41,189.43 L207.41,301.52 C201.52,302.93 195.08,304.25 188.15,305.38 L188.15,95.08 L172.89,95.08 L172.89,307.4 C166.73,308.05 160.3,308.5 153.63,308.71 L153.63,0.78 L138.37,0.78 L138.37,308.71 C131.7,308.5 125.27,308.05 119.11,307.4 L119.11,95.08 L103.85,95.08 L103.85,305.38 C96.92,304.25 90.49,302.93 84.59,301.52 L84.59,189.38 L69.33,189.38 L69.33,297.43 C57.3660205,294.099989 45.7958535,289.490027 34.82,283.68 L34.82,433.43 C39.9259023,433.251405 45.0192709,432.810825 50.08,432.11 L50.08,307.14 Z" id="Shape" fill="#00B9E7"></path>
            <path d="M176.68,514.18 C173.437375,511.594634 169.690819,509.714544 165.68,508.66 C160.707204,507.334606 155.575899,506.69866 150.43,506.77 L95.87,506.77 C95.3177153,506.77 94.87,507.217715 94.87,507.77 L94.87,600.25 C94.87,600.802285 95.3177153,601.25 95.87,601.25 L115.5,601.25 C116.052285,601.25 116.5,600.802285 116.5,600.25 L116.5,576.47 C116.5,569.39 120.19,566.37 128.86,566.37 L151.31,566.37 C156.324389,566.449372 161.316697,565.688865 166.08,564.12 C170.067483,562.801519 173.730993,560.654531 176.83,557.82 C179.720135,555.089374 181.958764,551.743393 183.38,548.03 C184.909715,543.958841 185.669285,539.638786 185.62,535.29 C185.686483,531.126397 184.918024,526.99168 183.36,523.13 C181.911242,519.632136 179.628106,516.542179 176.71,514.13 M163.51,540.41 C163.025362,541.917481 162.165024,543.276814 161.01,544.36 C159.706466,545.557118 158.156949,546.454746 156.47,546.99 C154.2583,547.702525 151.943093,548.040512 149.62,547.99 L116.47,547.99 L116.47,524.87 L152.09,524.87 C153.868812,524.834526 155.640713,525.101664 157.33,525.66 C158.73766,526.126819 160.032064,526.883023 161.13,527.88 C162.161994,528.833172 162.956524,530.014694 163.45,531.33 C163.967359,532.728225 164.224921,534.209204 164.21,535.7 C164.218119,537.315155 163.971766,538.921508 163.48,540.46" id="Shape" fill="#014695"></path>
            <path d="M271,506.77 C270.447715,506.77 270,507.217715 270,507.77 L270,564.77 C268.490264,564.050111 267.168751,562.988792 266.14,561.67 C264.71,559.91 263.14,557.9 261.46,555.76 C253.371356,545.117135 244.617189,534.996903 235.25,525.46 C222.74,513.02 211.86,506.97 202,506.97 C198.71,506.97 196.67,506.92 195.55,506.87 L195.55,506.87 C195.300826,506.873375 195.061891,506.969663 194.88,507.14 C194.689144,507.327071 194.581109,507.582754 194.58,507.85 L194.58,600.25 C194.58,600.802285 195.027715,601.25 195.58,601.25 L215.22,601.25 C215.772285,601.25 216.22,600.802285 216.22,600.25 L216.22,539.47 L216.68,539.57 C224.41,541.32 233.73,556.8 242.79,567.81 C250.328995,576.959377 258.697964,585.39195 267.79,593 C272.96,597.33 281.73,601.2 287.35,601.2 L290.56,601.2 C291.181818,601.194569 291.684569,600.691818 291.69,600.07 L291.69,507.75 C291.69,507.197715 291.242285,506.75 290.69,506.75 L271,506.77 Z" id="Path" fill="#014695"></path>
            <path d="M28.92,583.05 C23.79,583.05 21.92,581.38 21.92,576.86 L21.92,507.75 C21.92,507.197715 21.4722847,506.75 20.92,506.75 L1.27,506.75 C0.71771525,506.75 0.27,507.197715 0.27,507.75 L0.27,591.57 C0.27,596.35 5.34,601.2 15.03,601.2 L82.03,601.2 C82.5822847,601.2 83.03,600.752285 83.03,600.2 L83.03,584 C83.03,583.447715 82.5822847,583 82.03,583 L28.92,583.05 Z" id="Path" fill="#014695"></path>
            <path d="M24.75,621.86 L32.38,621.86 C33.4053177,621.835108 34.4252769,622.0153 35.38,622.39 C36.181376,622.715248 36.8942085,623.225883 37.46,623.88 C38.0214035,624.55777 38.4367485,625.344202 38.68,626.19 C38.9542721,627.166106 39.0889422,628.176132 39.08,629.19 C39.0780489,629.860191 39.0211921,630.529095 38.91,631.19 C38.8092009,631.810724 38.6381004,632.417963 38.4,633 C38.1795716,633.556982 37.890685,634.084368 37.54,634.57 C37.1900857,635.039873 36.7682334,635.451601 36.29,635.79 C35.7725514,636.142038 35.2019646,636.408762 34.6,636.58 C33.9114438,636.780415 33.197084,636.878134 32.48,636.87 L24.75,636.87 L24.75,621.86 Z M32.42,634.94 C32.9630587,634.950914 33.5040432,634.869766 34.02,634.7 C34.4446251,634.552558 34.8404833,634.332637 35.19,634.05 C35.5205008,633.770587 35.7953086,633.431318 36,633.05 C36.2082815,632.673366 36.3726887,632.274092 36.49,631.86 C36.6062713,631.430763 36.6865494,630.992578 36.73,630.55 C36.7777449,630.101598 36.8011126,629.650935 36.8,629.2 C36.8032611,628.755372 36.7765338,628.311031 36.72,627.87 C36.6692251,627.438393 36.5754253,627.012944 36.44,626.6 C36.3124638,626.205336 36.1343132,625.828867 35.91,625.48 C35.6932785,625.126977 35.4116475,624.818201 35.08,624.57 C34.7278278,624.303533 34.331902,624.100494 33.91,623.97 C33.4087349,623.812865 32.8851926,623.738555 32.36,623.75 L27,623.75 L27,634.91 L32.42,634.94 Z" id="Shape" fill="#014695"></path>
            <path d="M44,632 C44.0208847,632.533578 44.1682666,633.054556 44.43,633.52 C44.6707975,633.94292 44.9897927,634.316212 45.37,634.62 C45.7464438,634.917054 46.1732346,635.143998 46.63,635.29 C47.0852315,635.439311 47.5609175,635.516905 48.04,635.52 C48.3753655,635.52022 48.7100631,635.490097 49.04,635.43 C49.3856393,635.371611 49.7219409,635.267358 50.04,635.12 C50.3744868,634.967505 50.6818567,634.761466 50.95,634.51 C51.2493985,634.228161 51.4876631,633.887783 51.65,633.51 L53.9,633.51 C53.6742807,634.142512 53.3354367,634.728712 52.9,635.24 C52.4971232,635.703325 52.0248472,636.101386 51.5,636.42 C50.9934593,636.716928 50.4482979,636.942396 49.88,637.09 C49.3372898,637.227374 48.7798228,637.297897 48.22,637.3 C47.2449567,637.32138 46.274639,637.158529 45.36,636.82 C44.609519,636.531766 43.9280889,636.088837 43.36,635.52 C42.8326327,634.978576 42.4269249,634.330807 42.17,633.62 C41.7352868,632.379299 41.6624527,631.040539 41.96,629.76 C42.0719442,629.263197 42.2466824,628.782667 42.48,628.33 C42.7168181,627.885412 43.0128503,627.475004 43.36,627.11 C43.7216239,626.717198 44.139503,626.380199 44.6,626.11 C45.0962303,625.835235 45.6278722,625.629981 46.18,625.5 C46.8100938,625.337054 47.4592594,625.259692 48.11,625.27 C48.6070818,625.270897 49.1028466,625.321143 49.59,625.42 C50.0808024,625.52747 50.5573668,625.691918 51.01,625.91 C51.4758406,626.138877 51.9095591,626.428023 52.3,626.77 C52.697274,627.135028 53.0347228,627.560213 53.3,628.03 C53.6066876,628.565972 53.8388277,629.141276 53.99,629.74 C54.161153,630.464063 54.2450825,631.206 54.24,631.95 L44,632 Z M51.85,630.31 C51.7823227,629.830286 51.6299551,629.366411 51.4,628.94 C51.1939979,628.556714 50.9155073,628.217091 50.58,627.94 C50.2476523,627.663536 49.863488,627.456155 49.45,627.33 C48.9938416,627.186836 48.5180799,627.115977 48.04,627.12 C47.5653505,627.118137 47.0932136,627.188957 46.64,627.33 C46.2087566,627.469582 45.8033624,627.679035 45.44,627.95 C45.0796636,628.22364 44.7743026,628.56293 44.54,628.95 C44.281815,629.365185 44.1084756,629.827424 44.03,630.31 L51.85,630.31 Z" id="Shape" fill="#014695"></path>
            <polygon id="Path" fill="#014695" points="66.1 625.68 68.45 625.68 63.48 636.9 61.12 636.9 56.1 625.68 58.56 625.68 62.35 634.54"></polygon>
            <path d="M72.63,632 C72.6590563,632.533553 72.8095469,633.05343 73.07,633.52 C73.3107975,633.94292 73.6297927,634.316212 74.01,634.62 C74.3864438,634.917054 74.8132346,635.143998 75.27,635.29 C75.7252315,635.439311 76.2009175,635.516905 76.68,635.52 C77.0153437,635.519736 77.3499981,635.489617 77.68,635.43 C78.0249582,635.368779 78.3609009,635.264637 78.68,635.12 C79.0144868,634.967505 79.3218567,634.761466 79.59,634.51 C79.8893985,634.228161 80.1276631,633.887783 80.29,633.51 L82.54,633.51 C82.079519,634.725214 81.2236145,635.750186 80.11,636.42 C79.6078205,636.718551 79.0657232,636.944144 78.5,637.09 C77.9572898,637.227374 77.3998228,637.297897 76.84,637.3 C75.8648871,637.322345 74.8943895,637.159465 73.98,636.82 C73.229519,636.531766 72.5480889,636.088837 71.98,635.52 C71.4493931,634.981128 71.0432147,634.332607 70.79,633.62 C70.3552868,632.379299 70.2824527,631.040539 70.58,629.76 C70.7923533,628.764098 71.277016,627.846701 71.98,627.11 C72.337965,626.717329 72.7525318,626.380282 73.21,626.11 C73.706964,625.836809 74.2383862,625.631639 74.79,625.5 C75.9069767,625.223069 77.0712655,625.195755 78.2,625.42 C78.6935785,625.529031 79.1732793,625.693404 79.63,625.91 C80.0940924,626.1366 80.5247983,626.425981 80.91,626.77 C81.307274,627.135028 81.6447228,627.560213 81.91,628.03 C82.2250436,628.56188 82.4576837,629.138423 82.6,629.74 C82.7760412,630.463204 82.8600392,631.205746 82.85,631.95 L72.63,632 Z M80.49,630.31 C80.4176304,629.831391 80.2655216,629.368304 80.04,628.94 C79.8339979,628.556714 79.5555073,628.217091 79.22,627.94 C78.8839402,627.663485 78.4965053,627.456174 78.08,627.33 C77.627451,627.186078 77.1548589,627.115189 76.68,627.12 C76.2053505,627.118137 75.7332136,627.188957 75.28,627.33 C74.8465346,627.47166 74.4381684,627.680905 74.07,627.95 C73.7147508,628.229124 73.4102905,628.567413 73.17,628.95 C72.9150884,629.365833 72.7451458,629.828077 72.67,630.31 L80.49,630.31 Z" id="Shape" fill="#014695"></path>
            <rect id="Rectangle" fill="#014695" x="86.34" y="621.6" width="2.12" height="15.31"></rect>
            <path d="M91.9099844,631.3 C91.9088703,630.771455 91.9692769,630.244575 92.09,629.73 C92.2019442,629.233197 92.3766824,628.752667 92.61,628.3 C92.8401316,627.851283 93.1368218,627.439962 93.49,627.08 C93.8530998,626.68473 94.2746658,626.347477 94.74,626.08 C95.2502744,625.802751 95.7950064,625.594273 96.36,625.46 C97.677052,625.165324 99.042948,625.165324 100.36,625.46 C100.924994,625.594273 101.469726,625.802751 101.98,626.08 C102.443533,626.350111 102.864725,626.687065 103.23,627.08 C103.577163,627.442711 103.870181,627.85361 104.1,628.3 C104.336773,628.752183 104.514878,629.23273 104.63,629.73 C104.856622,630.761027 104.856622,631.828973 104.63,632.86 C104.518232,633.351902 104.339923,633.82627 104.1,634.27 C103.633447,635.191723 102.892842,635.946301 101.98,636.43 C101.473683,636.715752 100.927724,636.924699 100.36,637.05 C99.7047553,637.204363 99.0331311,637.278241 98.36,637.27 C97.3882715,637.290598 96.4213748,637.127752 95.51,636.79 C94.759519,636.501766 94.0780889,636.058837 93.51,635.49 C92.9793931,634.951128 92.5732147,634.302607 92.32,633.59 C92.0588374,632.854889 91.9268896,632.080119 91.93,631.3 M102.56,631.3 C102.558517,630.964713 102.528408,630.630164 102.47,630.3 C102.403155,629.957606 102.302667,629.622648 102.17,629.3 C102.030007,628.986085 101.852009,628.690541 101.64,628.42 C101.413806,628.146871 101.143385,627.913632 100.84,627.73 C100.509036,627.520345 100.1483,627.36189 99.77,627.26 C98.8571826,627.033429 97.9028174,627.033429 96.99,627.26 C96.6122468,627.363437 96.2517332,627.521794 95.92,627.73 C95.6215643,627.916411 95.3548628,628.149353 95.13,628.42 C94.9149061,628.690298 94.7335683,628.985811 94.59,629.3 C94.4526979,629.620986 94.352061,629.956442 94.29,630.3 C94.2282379,630.629876 94.1947828,630.964426 94.1899979,631.3 C94.1895461,631.811351 94.2636591,632.320036 94.41,632.81 C94.5574289,633.295492 94.7986486,633.747354 95.12,634.14 C95.4730671,634.566389 95.9173136,634.908117 96.42,635.14 C97.6801698,635.632974 99.0798302,635.632974 100.34,635.14 C100.844318,634.910823 101.28913,634.56866 101.64,634.14 C101.964965,633.749775 102.206593,633.297147 102.35,632.81 C102.488384,632.318567 102.559036,631.810544 102.56,631.3" id="Shape" fill="#014695"></path>
            <path d="M108.09,625.68 L110.21,625.68 L110.21,627.25 C110.448806,626.949554 110.728135,626.683687 111.04,626.46 C111.348211,626.228969 111.684163,626.037476 112.04,625.89 C112.418058,625.726942 112.814176,625.609449 113.22,625.54 C114.442966,625.314619 115.703346,625.407598 116.88,625.81 C117.583974,626.060689 118.22775,626.455811 118.77,626.97 C119.314252,627.490111 119.74052,628.120988 120.02,628.82 C120.339752,629.620947 120.49615,630.477737 120.48,631.34 C120.497259,632.199107 120.340796,633.052847 120.02,633.85 C119.740828,634.555013 119.31471,635.192486 118.77,635.72 C118.224566,636.227616 117.581511,636.618893 116.88,636.87 C116.122541,637.13941 115.32393,637.274768 114.52,637.27 C114.097686,637.26813 113.67625,637.231338 113.26,637.16 C112.846659,637.085897 112.441443,636.972035 112.05,636.82 C111.695157,636.674647 111.359348,636.486594 111.05,636.26 C110.732761,636.050449 110.455141,635.786372 110.23,635.48 L110.23,641.22 L108.11,641.22 L108.09,625.68 Z M118.24,631.36 C118.241716,630.83284 118.171057,630.30794 118.03,629.8 C117.767409,628.792846 117.055447,627.962838 116.1,627.55 C115.509591,627.311296 114.876675,627.195602 114.24,627.21 C113.602466,627.19677 112.969121,627.315948 112.38,627.56 C111.417163,627.99283 110.688103,628.820313 110.38,629.83 C110.208054,630.321787 110.120158,630.83902 110.12,631.36 C110.111775,631.941436 110.217075,632.518891 110.43,633.06 C110.618596,633.545439 110.908348,633.98518 111.28,634.35 C111.656985,634.716098 112.106705,634.998877 112.6,635.18 C113.139394,635.385608 113.712795,635.487395 114.29,635.48 C114.866386,635.488239 115.439334,635.389922 115.98,635.19 C116.454891,635.017844 116.882951,634.737037 117.23,634.37 C117.587408,634.005205 117.857505,633.564161 118.02,633.08 C118.207345,632.526239 118.298659,631.944529 118.29,631.36 L118.24,631.36 Z" id="Shape" fill="#014695"></path>
            <path d="M140.65,629.76 C140.664932,629.322781 140.590057,628.887143 140.43,628.48 C140.299981,628.161531 140.09805,627.877459 139.84,627.65 C139.596814,627.44179 139.309631,627.291361 139,627.21 C138.674137,627.121356 138.337696,627.077619 138,627.08 C137.527366,627.076828 137.05646,627.137373 136.6,627.26 C136.181011,627.370581 135.787194,627.5607 135.44,627.82 C135.101181,628.066739 134.823969,628.388443 134.63,628.76 C134.429081,629.17757 134.329713,629.636721 134.34,630.1 L134.34,636.91 L132.19,636.91 L132.19,629.76 C132.202041,629.322066 132.123748,628.886347 131.96,628.48 C131.72787,627.838877 131.185106,627.360189 130.52,627.21 C130.19447,627.119702 129.857797,627.075934 129.52,627.08 C129.04017,627.077613 128.564529,627.169344 128.12,627.35 C127.685333,627.530314 127.290979,627.795483 126.96,628.13 C126.621196,628.465443 126.349654,628.862573 126.16,629.3 C125.964034,629.786077 125.8655,630.305926 125.87,630.83 L125.87,636.91 L123.75,636.91 L123.75,625.68 L125.87,625.68 L125.87,627.37 C126.12586,627.032759 126.417568,626.724286 126.74,626.45 C127.047366,626.192977 127.382834,625.971568 127.74,625.79 C128.101977,625.607632 128.484786,625.469955 128.88,625.38 C129.263793,625.292348 129.656327,625.248733 130.05,625.249973 C130.419977,625.249179 130.788902,625.289426 131.15,625.37 C131.497644,625.46432 131.833209,625.598546 132.15,625.77 C132.486678,625.949763 132.799175,626.171535 133.08,626.43 C133.368653,626.710439 133.620656,627.026282 133.83,627.37 C134.088366,627.053328 134.376336,626.76201 134.69,626.5 C135.356701,625.953049 136.151663,625.58482 137,625.43 C137.496518,625.326126 138.00275,625.275838 138.51,625.28 C138.744452,625.283562 138.978362,625.303611 139.21,625.34 C139.516034,625.381011 139.817419,625.451335 140.11,625.55 C140.43603,625.655756 140.748246,625.800114 141.04,625.98 C141.362564,626.165296 141.650232,626.405583 141.89,626.69 C142.154156,627.006695 142.357566,627.369442 142.49,627.76 C142.658644,628.23135 142.739972,628.729488 142.73,629.23 L142.73,636.91 L140.57,636.91 L140.65,629.76 Z" id="Path" fill="#014695"></path>
            <path d="M148.32,632 C148.349056,632.533553 148.499547,633.05343 148.76,633.52 C149.000881,633.939923 149.31599,634.312632 149.69,634.62 C150.071518,634.914917 150.501189,635.141594 150.96,635.29 C151.411809,635.439239 151.884192,635.516845 152.36,635.52 C152.695339,635.51963 153.029984,635.489512 153.36,635.43 C153.704958,635.368779 154.040901,635.264637 154.36,635.12 C154.694487,634.967505 155.001857,634.761466 155.27,634.51 C155.565337,634.22467 155.802993,633.885161 155.97,633.51 L158.22,633.51 C157.993877,634.142325 157.655073,634.728456 157.22,635.24 C156.82061,635.702983 156.351679,636.101069 155.83,636.42 C155.322624,636.715243 154.777699,636.940613 154.21,637.09 C153.664026,637.228085 153.103163,637.298613 152.54,637.3 C151.568271,637.320598 150.601375,637.157752 149.69,636.82 C148.939519,636.531766 148.258089,636.088837 147.69,635.52 C147.159393,634.981128 146.753215,634.332607 146.5,633.62 C146.065287,632.379299 145.992453,631.040539 146.29,629.76 C146.502353,628.764098 146.987016,627.846701 147.69,627.11 C148.047965,626.717329 148.462532,626.380282 148.92,626.11 C149.416964,625.836809 149.948386,625.631639 150.5,625.5 C151.130315,625.338234 151.779322,625.260891 152.43,625.27 C152.927109,625.270364 153.422927,625.320616 153.91,625.42 C154.403578,625.529031 154.883279,625.693404 155.34,625.91 C155.804092,626.1366 156.234798,626.425981 156.62,626.77 C157.017274,627.135028 157.354723,627.560213 157.62,628.03 C157.935044,628.56188 158.167684,629.138423 158.31,629.74 C158.486041,630.463204 158.570039,631.205746 158.56,631.95 L148.32,632 Z M156.17,630.31 C156.100954,629.831947 155.952224,629.368857 155.73,628.94 C155.520769,628.558886 155.242745,628.219832 154.91,627.94 C154.57394,627.663485 154.186505,627.456174 153.77,627.33 C153.314029,627.186023 152.838138,627.115145 152.36,627.12 C151.888632,627.118212 151.419802,627.189042 150.97,627.33 C150.536535,627.47166 150.128168,627.680905 149.76,627.95 C149.404751,628.229124 149.100291,628.567413 148.86,628.95 C148.610221,629.369275 148.437498,629.82987 148.35,630.31 L156.17,630.31 Z" id="Shape" fill="#014695"></path>
            <path d="M161.87,625.68 L164,625.68 L164,627.45 C164.243033,627.072545 164.543288,626.735181 164.89,626.45 C165.213094,626.177062 165.573369,625.951469 165.96,625.78 C166.332683,625.607425 166.725855,625.483089 167.13,625.41 C167.525206,625.331474 167.92707,625.291287 168.33,625.29 C168.967535,625.280232 169.603415,625.357614 170.22,625.52 C170.755011,625.652488 171.258182,625.890474 171.7,626.22 C172.131517,626.539328 172.47547,626.96239 172.7,627.45 C172.949257,628.012923 173.068868,628.62465 173.05,629.24 L173.05,636.92 L170.9,636.92 L170.9,629.7 C170.909036,629.321195 170.844511,628.944234 170.71,628.59 C170.600196,628.271419 170.406782,627.988206 170.15,627.77 C169.860595,627.522805 169.51857,627.344953 169.15,627.25 C168.679671,627.129683 168.195417,627.072514 167.71,627.08 C167.213805,627.075963 166.721486,627.167636 166.26,627.35 C165.819202,627.529876 165.418215,627.794935 165.08,628.13 C164.73564,628.46465 164.46339,628.866218 164.28,629.31 C164.086718,629.793064 163.991535,630.309772 164,630.83 L164,636.91 L161.87,636.91 L161.87,625.68 Z" id="Path" fill="#014695"></path>
            <path d="M177.8,622.23 L179.92,622.23 L179.92,625.68 L183.07,625.68 L183.07,627.34 L179.92,627.34 L179.92,634.16 C179.914644,634.347162 179.955879,634.532722 180.04,634.7 C180.119031,634.841975 180.228269,634.964868 180.36,635.06 C180.510807,635.149764 180.676947,635.210795 180.85,635.24 C181.049438,635.289685 181.254492,635.313216 181.46,635.31 C181.744413,635.310619 182.028494,635.290566 182.31,635.25 C182.565743,635.217526 182.819472,635.170787 183.07,635.11 L183.07,637.11 C182.71,637.17 182.34,637.22 181.96,637.25 C181.626907,637.267896 181.293093,637.267896 180.96,637.25 C180.465911,637.259365 179.973368,637.191893 179.5,637.05 C179.125871,636.947958 178.782498,636.755669 178.5,636.49 C178.239438,636.244618 178.049499,635.933809 177.95,635.59 C177.829242,635.212034 177.771801,634.816704 177.78,634.42 L177.78,627.32 L175.51,627.32 L175.51,625.66 L177.78,625.66 L177.8,622.23 Z" id="Path" fill="#014695"></path>
            <path d="M203,628.77 L210.08,628.77 L210.08,636.91 L208.62,636.91 L208.05,634.76 C207.777046,635.073029 207.483029,635.367046 207.17,635.64 C206.79977,635.956441 206.393655,636.228304 205.96,636.45 C205.445907,636.70922 204.901798,636.904025 204.34,637.03 C203.651743,637.190524 202.946687,637.267745 202.24,637.26 C201.335335,637.269531 200.433625,637.155135 199.56,636.92 C198.82766,636.719178 198.129807,636.409021 197.49,636 C196.915181,635.632948 196.404974,635.173424 195.98,634.64 C195.578698,634.130567 195.242753,633.572897 194.98,632.98 C194.729018,632.39933 194.544512,631.792138 194.43,631.17 C194.312185,630.573822 194.251908,629.967705 194.25,629.36 C194.241883,628.519247 194.349561,627.68138 194.57,626.87 C194.770105,626.162735 195.073364,625.488826 195.47,624.87 C195.837713,624.301781 196.289522,623.792652 196.81,623.36 C197.316321,622.937945 197.8741,622.581773 198.47,622.3 C199.065572,622.026216 199.689272,621.818316 200.33,621.68 C200.968357,621.548662 201.618274,621.481661 202.27,621.48 C202.794612,621.480349 203.318784,621.510397 203.84,621.57 C204.367997,621.627957 204.88996,621.731681 205.4,621.88 C205.907401,622.025269 206.397076,622.226505 206.86,622.48 C207.328238,622.723493 207.756515,623.037113 208.13,623.41 C208.529913,623.802886 208.867171,624.254812 209.13,624.75 C209.439774,625.323346 209.671814,625.935393 209.82,626.57 L207.42,626.57 C207.255132,626.080218 207.022905,625.615763 206.73,625.19 C206.460742,624.79822 206.12178,624.459258 205.73,624.19 C205.296162,623.907056 204.815279,623.703866 204.31,623.59 C203.694507,623.442081 203.062962,623.371536 202.43,623.38 C201.819067,623.374887 201.210238,623.452252 200.62,623.61 C200.097449,623.75258 199.596333,623.964461 199.13,624.24 C198.701833,624.514054 198.317501,624.851187 197.99,625.24 C197.670327,625.60777 197.39819,626.014295 197.18,626.45 C196.963679,626.895417 196.802489,627.365555 196.7,627.85 C196.591363,628.342545 196.537702,628.845622 196.54,629.35 C196.516427,630.282898 196.679626,631.211093 197.02,632.08 C197.578581,633.485697 198.750386,634.558009 200.2,634.99 C200.929071,635.212817 201.687651,635.324076 202.45,635.32 C203.197295,635.332049 203.941207,635.217081 204.65,634.98 C205.268055,634.761947 205.835972,634.421878 206.32,633.98 C206.787793,633.576091 207.165895,633.078768 207.43,632.52 C207.703701,631.941506 207.869744,631.317998 207.92,630.68 L203,630.68 L203,628.77 Z" id="Path" fill="#014695"></path>
            <path d="M214.07,625.68 L216.19,625.68 L216.19,627.68 C216.412349,627.260718 216.695403,626.876573 217.03,626.54 C217.294028,626.254118 217.601056,626.011195 217.94,625.82 C218.251442,625.64407 218.589051,625.519155 218.94,625.45 C219.269746,625.38734 219.604375,625.353877 219.94,625.35 L220.55,625.35 C220.757285,625.359689 220.962387,625.396675 221.16,625.46 L221.16,627.71 C220.9,627.64 220.65,627.58 220.43,627.54 C220.17982,627.490099 219.925086,627.466637 219.67,627.47 C219.177875,627.464794 218.689231,627.553021 218.23,627.73 C217.811168,627.902647 217.435577,628.16556 217.13,628.5 C216.81418,628.853429 216.575746,629.268987 216.43,629.72 C216.258416,630.249524 216.173983,630.803403 216.18,631.36 L216.18,636.84 L214.06,636.84 L214.07,625.68 Z" id="Path" fill="#014695"></path>
            <path d="M223.319984,631.3 C223.31887,630.771455 223.379277,630.244575 223.5,629.73 C223.611944,629.233197 223.786682,628.752667 224.02,628.3 C224.250132,627.851283 224.546822,627.439962 224.9,627.08 C225.2631,626.68473 225.684666,626.347477 226.15,626.08 C226.661041,625.804419 227.205549,625.596027 227.77,625.46 C228.425245,625.305637 229.096869,625.231759 229.77,625.24 C230.443073,625.232936 231.114556,625.306799 231.77,625.46 C232.331278,625.595988 232.872485,625.804402 233.38,626.08 C233.843533,626.350111 234.264725,626.687065 234.63,627.08 C234.97715,627.445004 235.273182,627.855412 235.51,628.3 C235.739321,628.754405 235.913876,629.234432 236.03,629.73 C236.256622,630.761027 236.256622,631.828973 236.03,632.86 C235.917165,633.350151 235.742429,633.823955 235.51,634.27 C235.270677,634.713022 234.974874,635.123113 234.63,635.49 C234.261251,635.86244 233.840152,636.179106 233.38,636.43 C232.876427,636.714047 232.334021,636.922924 231.77,637.05 C231.114556,637.203201 230.443073,637.277064 229.77,637.27 C228.794957,637.29138 227.824639,637.128529 226.91,636.79 C226.159519,636.501766 225.478089,636.058837 224.91,635.49 C224.382633,634.948576 223.976925,634.300807 223.72,633.59 C223.458837,632.854889 223.32689,632.080119 223.33,631.3 M233.96,631.3 C233.958517,630.964713 233.928408,630.630164 233.87,630.3 C233.803155,629.957606 233.702667,629.622648 233.57,629.3 C233.430007,628.986085 233.252009,628.690541 233.04,628.42 C232.815137,628.149353 232.548436,627.916411 232.25,627.73 C231.914497,627.52217 231.550744,627.363871 231.17,627.26 C230.257183,627.033429 229.302817,627.033429 228.39,627.26 C228.012247,627.363437 227.651733,627.521794 227.32,627.73 C227.021564,627.916411 226.754863,628.149353 226.53,628.42 C226.318429,628.69275 226.13735,628.987841 225.99,629.3 C225.852698,629.620986 225.752061,629.956442 225.69,630.3 C225.628238,630.629876 225.594783,630.964426 225.59,631.3 C225.594466,631.810985 225.668479,632.318983 225.81,632.81 C225.956923,633.297739 226.201931,633.750325 226.53,634.14 C226.877008,634.568478 227.318547,634.910756 227.82,635.14 C228.452223,635.405989 229.134462,635.532203 229.82,635.51 C230.505419,635.53064 231.187329,635.404487 231.82,635.14 C232.319792,634.90802 232.760756,634.566187 233.11,634.14 C233.434965,633.749775 233.676593,633.297147 233.82,632.81 C233.958384,632.318567 234.029036,631.810544 234.03,631.3" id="Shape" fill="#014695"></path>
            <path d="M250.64,636.91 L248.48,636.91 L248.48,635.21 C248.238431,635.588565 247.937985,635.926145 247.59,636.21 C247.25897,636.474111 246.891935,636.689618 246.5,636.85 C246.117674,637.008565 245.718386,637.122647 245.31,637.19 C244.903517,637.257661 244.492075,637.291112 244.08,637.29 C243.455905,637.294977 242.833877,637.217644 242.23,637.06 C241.699784,636.929049 241.204793,636.68326 240.78,636.34 C240.361681,635.999103 240.035132,635.559122 239.83,635.06 C239.58326,634.461168 239.464058,633.817477 239.48,633.17 L239.48,625.7 L241.61,625.7 L241.61,633 C241.603638,633.36234 241.668182,633.722428 241.8,634.06 C241.922432,634.365892 242.122306,634.634688 242.38,634.84 C242.676429,635.069821 243.016738,635.236573 243.38,635.33 C243.864073,635.449507 244.361438,635.506636 244.86,635.5 C245.334494,635.49977 245.805162,635.415117 246.25,635.25 C246.676163,635.090994 247.066906,634.849752 247.4,634.54 C247.740428,634.21966 248.009599,633.831236 248.19,633.4 C248.386686,632.924629 248.485325,632.414427 248.48,631.9 L248.48,625.7 L250.64,625.7 L250.64,636.91 Z" id="Path" fill="#014695"></path>
            <path d="M254.43,625.68 L256.56,625.68 L256.56,627.25 C256.797795,626.952109 257.073457,626.686532 257.38,626.46 C257.688609,626.229576 258.024482,626.038128 258.38,625.89 C258.757418,625.725182 259.153753,625.607625 259.56,625.54 C259.985268,625.459512 260.417183,625.419334 260.85,625.42 C261.656569,625.412482 262.45837,625.544424 263.22,625.81 C263.920928,626.060866 264.5614,626.456051 265.1,626.97 C265.650551,627.486834 266.08071,628.118416 266.36,628.82 C266.674956,629.62232 266.831178,630.478148 266.82,631.34 C266.832183,632.198689 266.675903,633.051438 266.36,633.85 C266.080968,634.557536 265.650975,635.195699 265.1,635.72 C264.558357,636.227585 263.918564,636.618948 263.22,636.87 C262.45897,637.138978 261.657153,637.274305 260.85,637.27 C260.427707,637.267679 260.006307,637.23089 259.59,637.16 C259.18315,637.085935 258.784567,636.972054 258.4,636.82 C258.023983,636.679853 257.66769,636.491623 257.34,636.26 C257.027858,636.047647 256.753977,635.783909 256.53,635.48 L256.53,641.22 L254.4,641.22 L254.43,625.68 Z M264.59,631.36 C264.593323,630.832041 264.519201,630.306449 264.37,629.8 C264.240209,629.311472 264.004655,628.857433 263.68,628.47 C263.343185,628.071769 262.91878,627.756887 262.44,627.55 C261.246101,627.090048 259.923899,627.090048 258.73,627.55 C258.235016,627.767784 257.791913,628.088182 257.43,628.49 C257.091452,628.878887 256.833163,629.330893 256.67,629.82 C256.320288,630.871244 256.337918,632.010084 256.72,633.05 C257.111469,634.034961 257.9045,634.806165 258.9,635.17 C259.439394,635.375608 260.012795,635.477395 260.59,635.47 C261.166332,635.477554 261.739156,635.379258 262.28,635.18 C262.754891,635.007844 263.182951,634.727037 263.53,634.36 C263.887408,633.995205 264.157505,633.554161 264.32,633.07 C264.507345,632.516239 264.598659,631.934529 264.59,631.35 L264.59,631.36 Z" id="Shape" fill="#014695"></path>
        </g>
    </g>
</svg>