<svg xmlns="http://www.w3.org/2000/svg" width="198.933" height="32.088" viewBox="0 0 198.933 32.088"><defs><style>.a{fill:#040506;}.b{fill:#00155e;}</style></defs><g transform="translate(-390.377 -288.261)"><g transform="translate(428.164 299.065)"><path class="a" d="M207.592,358.443l-3.659-5.7H201.07v5.7h-1.786V344.091h5.768a4.181,4.181,0,0,1,4.5,4.326,3.968,3.968,0,0,1-3.724,4.174l3.876,5.852Zm.108-10.026a2.67,2.67,0,0,0-2.865-2.735H201.07v5.489h3.765A2.686,2.686,0,0,0,207.7,348.417Z" transform="translate(-199.284 -343.853)"/><path class="a" d="M216.083,358.443l-1.269-3.185H207.67l-1.271,3.185h-2.044l5.768-14.352h2.217l5.787,14.352Zm-4.841-12.5-3.057,7.727h6.09Z" transform="translate(-190.61 -343.853)"/><path class="a" d="M210.918,358.443V344.091H212.7v14.352Z" transform="translate(-179.384 -343.853)"/><path class="a" d="M225.877,358.443V346.631l-4.887,11.812h-.732L215.4,346.631v11.812h-1.786V344.091h2.561l4.453,10.8,4.475-10.8h2.561v14.352Z" transform="translate(-174.781 -343.853)"/><path class="a" d="M220.609,351.427c0-4.239,2.86-7.424,7.12-7.424,4.242,0,7.126,3.185,7.126,7.424s-2.884,7.427-7.126,7.427C223.469,358.854,220.609,355.666,220.609,351.427Zm12.4,0c0-3.356-2.068-5.83-5.275-5.83-3.225,0-5.272,2.475-5.272,5.83,0,3.337,2.046,5.833,5.272,5.833C230.936,357.26,233,354.764,233,351.427Z" transform="translate(-162.808 -344.003)"/><path class="a" d="M237.844,358.443,229.474,347v11.446h-1.786V344.091h1.83l8.264,11.211V344.091h1.786v14.352Z" transform="translate(-150.7 -343.853)"/><path class="a" d="M236.942,358.443V344.091h1.786v12.761h6.67v1.591Z" transform="translate(-134.871 -343.853)"/><path class="a" d="M252.963,358.443l-1.269-3.185H244.55l-1.271,3.185h-2.044L247,344.091h2.217l5.79,14.352Zm-4.841-12.5-3.057,7.727h6.09Z" transform="translate(-127.528 -343.853)"/><path class="a" d="M257.955,358.443,249.585,347v11.446H247.8V344.091h1.83L257.89,355.3V344.091h1.786v14.352Z" transform="translate(-116.3 -343.853)"/><path class="a" d="M254.211,358.443V344.091h4.909a7.178,7.178,0,1,1,0,14.352Zm10.416-7.166a5.247,5.247,0,0,0-5.508-5.594H256v11.17h3.122A5.278,5.278,0,0,0,264.627,351.277Z" transform="translate(-105.333 -343.853)"/></g><g transform="translate(390.377 288.261)"><path class="b" d="M190.632,343l1.093.929v16.833l-.984.956-1.038-.929V344.034Z" transform="translate(-177.885 -334.923)"/><path class="b" d="M185.384,344.259l7.583,5.821V353.2l-3.853,3.962L192.967,361v3.218l-5.39-5.534-.02,3.853-2.213,2.309v-7.063l5.821-5.862-5.8-4.509Z" transform="translate(-185.343 -332.761)"/><path class="b" d="M190.556,342.495v16.1l-1.995,2.077v-16.15Z" transform="translate(-179.837 -335.779)"/><path class="b" d="M192.877,342.193V359.08l-2.022,2.1V344.16Z" transform="translate(-175.914 -336.297)"/><path class="b" d="M192.007,340.017,194,342.005v14.729l5.274-5.219V354.6L194,359.959l-1.995-2.022Z" transform="translate(-173.944 -340.017)"/></g></g></svg>