<svg height="40" viewBox="0 0 118 40" width="118" xmlns="http://www.w3.org/2000/svg"><g fill="none" fill-rule="evenodd"><path d="m0 40h117.336207v-40h-117.336207z" fill="#000"/><path d="m19.0517575 15.6708341.0091982 2.175836c.4507109-.7707529 1.0279887-1.3773607 1.7318335-1.8176346.7042128-.4406387 1.5408793-.6613229 2.5099996-.6613229.9014218 0 1.6468423.131681 2.2366297.3950429.5894194.2629971 1.0588946.6241165 1.4076896 1.0833584.348795.458877.5927308.9980029.7318073 1.6159184.1387085.6186451.2082468 1.2796031.2082468 1.9832389v8.5760403h-2.3153661v-8.8054788c0-.4037972-.0540853-.7806017-.1622559-1.1293191-.1081706-.3490821-.2700586-.6532979-.4860319-.9137416-.2159733-.260079-.4875036-.4636191-.8149588-.6102555-.3274553-.1473659-.7100996-.2203193-1.1483009-.2203193-.586844 0-1.1144516.1207379-1.5839268.3622137-.4691072.2422054-.8672045.5617414-1.1946597.9597024-.3270873.3979609-.5787496.8553789-.7546188 1.3726188-.1758692.5172398-.2638038 1.0545418-.2638038 1.6111764v7.373403h-2.3528947v-13.3504774zm19.3467179 6.6096171c0 .8079592.096029 1.5225381.2869832 2.1437365.1916901.6215632.4646921 1.1450041.8197419 1.5703226.3550498.4256832.7829492.7466783 1.2829623.9640795s1.0585266.3261018 1.6762764.3261018c.586844 0 1.1247536-.1087006 1.6155685-.3261018.490815-.2174012.9157709-.5383963 1.2737641-.9640795.3583612-.4253185.6357783-.9487594.8337231-1.5703226.197577-.6211984.2961815-1.3357773.2961815-2.1437365 0-.7773188-.0986045-1.4780364-.2961815-2.1025178-.1979448-.6244813-.4753619-1.1555823-.8337231-1.5933029-.3579932-.4373558-.7829491-.7725768-1.2737641-1.0052982-.4908149-.2323567-1.0287245-.3490822-1.6155685-.3490822-.6177498 0-1.1762633.1167255-1.6762764.3490822-.5000131.2327214-.9279125.5679424-1.2829623 1.0052982-.3550498.4377206-.6280518.9688216-.8197419 1.5933029-.1909542.6244814-.2869832 1.325199-.2869832 2.1025178zm-2.4264801 0c0-.985236.1280386-1.909556.3844839-2.7729598.2560774-.8630391.6512312-1.6140946 1.1854616-2.2542609.5338624-.6394368 1.208273-1.1431803 2.0235998-1.510136.8153267-.3673205 1.7815036-.5507984 2.8988986-.5507984 1.1048855 0 2.0651756.1834779 2.8801344.5507984.8149589.3669557 1.4893695.8706992 2.0239678 1.510136.5338624.6401663.9304879 1.3912218 1.1895087 2.2542609.2590208.8634038.389635 1.7877238.389635 2.7729598 0 .9669977-.1306142 1.8792803-.389635 2.7361183-.2590208.8572028-.6556463 1.605705-1.1895087 2.2451418-.5345983.6394368-1.2090089 1.1446393-2.0239678 1.5148779-.8149588.3702387-1.7752489.5555404-2.8801344.5555404-1.117395 0-2.0835719-.1853017-2.8988986-.5555404-.8153268-.3702386-1.4897374-.8754411-2.0235998-1.5148779-.5342304-.6394368-.9293842-1.387939-1.1854616-2.2451418-.2564453-.856838-.3844839-1.7691206-.3844839-2.7361183zm31.2293694-.0630682c0-.5934762-.0743213-1.1767388-.2222281-1.7490585-.1482747-.5723196-.3833802-1.0833584-.7042127-1.533481-.3208326-.4497579-.733279-.8123365-1.2362355-1.0881004-.5033245-.2753992-1.1100365-.4132812-1.8197681-.4132812-.7226091 0-1.3337363.144083-1.8341173.4318843-.5000131.2874365-.9073086.664241-1.2222543 1.1293191s-.5419568.9885189-.6806654 1.5699578c-.1387085.5818035-.2082468 1.1694434-.2082468 1.7629196 0 .6365186.0721138 1.2518808.217445 1.8453569.1449633.5942057.3797009 1.1191056.7042127 1.5746998.3241439.4563237.7468923.820726 1.2682452 1.0928423.5220888.2724811 1.1563953.4085392 1.9036555.4085392.728496 0 1.3381514-.1422592 1.8289663-.4267775.4911829-.2848832.8844971-.6613229 1.1806785-1.1296839.2965494-.4679962.5081075-1.0052982.6346745-1.6115412.126199-.6055134.1898505-1.2267119.1898505-1.8635953zm-7.8166142-11.5507163v6.7025962c.4565977-.6795612 1.0401303-1.181116 1.7505978-1.505394.7093637-.3246428 1.5059262-.4865994 2.3893195-.4865994.6791937 0 1.3039341.0886385 1.8753251.26628.5706552.1772769 1.0850174.4238595 1.5419831.7386535.4565977.3155236.8580063.6905042 1.2034899 1.1249419.3462196.4348024.6350425.9119178.8664687 1.4324405.2314262.520158.404352 1.0713211.5184095 1.6523952.1144253.5818036.171454 1.1756445.171454 1.7815227 0 .9611614-.1284066 1.8639601-.3844839 2.7087608-.2560774.8444359-.6387217 1.5819951-1.1483009 2.2126775-.5092113.6306824-1.1453575 1.12786-1.9080707 1.4918976-.7623452.3644024-1.6501536.5464212-2.6623214.5464212-.3274553 0-.6795616-.0291814-1.0559512-.0871794-.3767575-.0583627-.7549867-.1608623-1.1343197-.3078634-.3797009-.1466364-.7454205-.3425164-1.0978948-.5876399-.3517385-.244394-.6600615-.5566347-.925705-.9359925v1.6155537h-2.3525267v-18.3634722zm18.4021751 18.3544624v-18.354353h2.3149981v18.354353zm16.5498085-11.5784751c-.5500512 0-1.0485926.0966633-1.4959921.2892604-.4473995.1929618-.8318835.4577828-1.152716.7944628-.3215684.3366801-.5761741.72844-.7641849 1.174915-.1887467.4468397-.2950777.9276028-.3200967 1.4419245h7.4556775c-.0309059-.5201579-.1434916-1.0071221-.3377572-1.4597981-.1946335-.4530408-.4573336-.8448007-.7873643-1.1752797-.3303986-.3308438-.7167222-.5909228-1.157867-.7806017-.4415127-.1896789-.9216577-.2848832-1.4396993-.2848832zm6.0012609 7.4740788c-.129878.6671591-.3616722 1.271943-.6946464 1.8136222-.333342.5416792-.7487319 1.0052983-1.2458016 1.3908571-.4967017.3859237-1.066621.6839384-1.7082861.8951386-.6427689.2112002-1.3370476.3169826-2.0843078.3169826-1.0743475 0-2.012562-.1747234-2.8153792-.5234408-.8024493-.3487174-1.4709731-.8353168-2.0048355-1.4597981-.5342304-.6244814-.9341673-1.3667825-1.1994428-2.2269034-.2656435-.8597562-.3984652-1.8008554-.3984652-2.8232977 0-.9972734.1512181-1.9190399.4540222-2.7638406.3024362-.844436.7299676-1.574335 1.2825943-2.1896972.5526267-.6153621 1.2134241-1.0972195 1.9820241-1.4463017.7685999-.3487174 1.6159364-.5234408 2.5423772-.5234408.8083361 0 1.5213791.1167254 2.1391289.3490821.617014.2327214 1.153084.5464212 1.6067382.9410992.4540222.3950428.8337232.8495427 1.1391028 1.3638644.3057475.5139569.5478436 1.0556361.7273919 1.6246728.178813.5694015.303908 1.1468279.374918 1.7311849.07101.5843569.100444 1.1398973.087935 1.6662563h-9.9093846c0 .5756025.0816799 1.1172817.2454075 1.6254024.1633597.5081206.4135502.9535013.7498357 1.3357772.3366534.3826408.7594018.6857623 1.268981.9093645.5092113.2232375 1.1100365.3348563 1.8013718.3348563.4135502 0 .8009776-.0550799 1.1622821-.1652396.3609366-.1101596.6850805-.26628.9724317-.468361.2869832-.2017162.5353341-.4468397.7454206-.7342762.2097185-.2878013.3705027-.612444.4812488-.9735635z" fill="#fefefe"/></g></svg>