<?xml version="1.0" encoding="UTF-8"?>
<svg id="Layer_2" data-name="Layer 2" xmlns="http://www.w3.org/2000/svg" viewBox="0 0 1199.97 129.44">
  <defs>
    <style>
      .cls-1 {
        fill: #123f6d;
      }
    </style>
  </defs>
  <g id="Layer_2-2" data-name="Layer 2">
    <g>
      <g>
        <polygon class="cls-1" points="583.12 129.42 583.12 21.28 543.57 21.28 535.05 2.68 650.71 2.68 642.11 21.28 602.61 21.28 602.61 129.42 583.12 129.42"/>
        <path class="cls-1" d="M331.09,129.36c-19.99,0-35.88-5.72-48.53-17.48l12.67-12.54c10.74,7.4,22.22,10.85,36.06,10.85s27.46-6.55,27.46-18.7-14.39-16-25.96-18.87c-23.17-5.58-45.79-13.06-45.79-37.49,0-10.79,4.7-19.86,13.59-26.22,8.01-5.74,18.92-8.9,30.71-8.9,1.48,0,2.96.04,4.44.11,8.04.4,15.69,1.98,22.74,4.68,3.54,1.36,7.08,3.05,10.52,5.04.94.54,6.65,4.4,8.21,5.87-1.04,1.03-4.07,4.03-12.84,12.72-10.38-6.64-19.73-9.24-33.08-9.24-9.27,0-23.06,4.2-23.06,15.76,0,10.5,10.51,13.9,26.54,17.89,22.65,5.46,45.79,14.32,45.79,38.67,0,11.98-5.39,21.89-15.58,28.68-8.89,5.92-20.92,9.19-33.88,9.19Z"/>
        <path class="cls-1" d="M208.54,129.36c-19.99,0-35.88-5.72-48.53-17.48l12.66-12.54c10.75,7.4,22.23,10.85,36.06,10.85s27.46-6.55,27.46-18.7-14.39-16-25.96-18.87c-23.17-5.58-45.79-13.07-45.79-37.49,0-10.79,4.7-19.86,13.59-26.22,8.01-5.74,18.92-8.9,30.71-8.9,1.48,0,2.96.04,4.44.11,8.04.4,15.69,1.98,22.74,4.68,3.54,1.36,7.08,3.05,10.52,5.04.94.54,6.65,4.4,8.21,5.87-1.04,1.03-4.07,4.03-12.84,12.72-10.38-6.64-19.73-9.24-33.08-9.24-9.27,0-23.06,4.2-23.06,15.76,0,10.5,10.51,13.9,26.54,17.89,22.65,5.46,45.79,14.32,45.79,38.67,0,11.98-5.39,21.89-15.58,28.68-8.89,5.92-20.92,9.19-33.88,9.19Z"/>
        <g>
          <polygon class="cls-1" points="414.1 129.42 414.1 2.68 511.61 2.65 503.01 21.25 432.7 21.25 432.7 110.84 503.09 110.84 511.61 129.44 414.1 129.42"/>
          <rect class="cls-1" x="446.82" y="57.1" width="43.01" height="18.6"/>
        </g>
        <polygon class="cls-1" points="84.15 2.68 58.05 2.68 0 129.42 22.04 129.42 71.1 22.31 95.53 75.69 62.18 75.69 53.59 94.46 104.13 94.46 120.16 129.42 142.2 129.42 84.15 2.68"/>
      </g>
      <g>
        <g>
          <g>
            <path class="cls-1" d="M917.91,21.77c2.46,1.2,6.69,1.34,9.22.28,1.45-.61,2.69-1.44,3.79-2.53,1.06-1.08,1.87-2.28,2.48-3.68.57-1.35.87-2.83.87-4.4s-.29-3.03-.88-4.43c-.6-1.38-1.41-2.58-2.49-3.67-1.06-1.06-2.27-1.87-3.66-2.47-1.36-.58-2.84-.87-4.41-.87s-3.03.29-4.42.88c-1.38.59-2.59,1.41-3.67,2.48-1.06,1.07-1.87,2.28-2.48,3.67-.58,1.37-.86,2.81-.86,4.41s.29,3.06.87,4.42c.6,1.38,1.41,2.59,2.49,3.68.92.92,1.96,1.66,3.15,2.24Z"/>
            <path class="cls-1" d="M932.22,115.48V35.51h-18.75v93.91h23.41c-.11-.13-.21-.26-.31-.39-2.89-3.81-4.35-8.62-4.35-13.54Z"/>
          </g>
          <path class="cls-1" d="M1195.42,85.59l-.35.89c-5.7,14.36-18.34,21.8-22.07,23.73-2.07,1.01-4.02,1.85-5.97,2.56-5.27,1.91-10.74,2.89-16.24,2.89-7.21,0-14.06-1.7-19.8-4.92-5.8-3.24-10.87-7.8-15.06-13.54-8.69-11.78-13.12-28.86-13.09-45.37v-3h94.41c-.3-4.5-1.34-10.25-3.84-16.53-2.62-6.25-6.33-11.8-11.01-16.52-4.71-4.75-10.42-8.61-16.98-11.45-6.53-2.83-13.82-4.27-21.65-4.27-8.95,0-17.14,1.74-24.34,5.18-7.2,3.43-13.47,8.26-18.66,14.37-5.16,6.11-9.22,13.5-12.07,21.95-2.85,8.52-4.3,17.91-4.3,27.92,0,8.18,1.57,16.01,4.66,23.25,3.09,7.3,7.36,13.72,12.68,19.08,5.3,5.37,11.64,9.69,18.85,12.85,7.22,3.16,14.71,4.77,22.26,4.77,19.1-.04,37.95-11.44,49.58-28.27,2.51-3.63,4.61-7.56,6.26-11.68l1.3-3.27-4.55-.61ZM1102.96,41.06c.2-2.89.9-5.18,1.72-7.82l.53-1.72c3.53-11.91,14.28-21.87,26.74-24.8,2.44-.57,4.95-.86,7.45-.86,11.57,0,22.31,6.22,28.02,16.25,1.93,3.39,3.37,6.94,4.26,10.54.9,3.62,1.13,6.62,1.21,10.81h-70.08l.16-2.38Z"/>
          <polygon class="cls-1" points="823.87 97.08 816.51 80.72 853.88 2.68 847.75 2.68 813.52 74.07 792.72 27.85 803.87 2.68 789.75 2.68 745.05 97.08 737.57 80.71 774.94 2.68 768.81 2.68 734.56 74.11 701.92 2.68 684.24 2.68 742.29 129.42 746.61 129.42 785.24 44.41 822.46 129.42 826.78 129.42 886.24 2.68 868.56 2.68 823.87 97.08"/>
        </g>
        <path class="cls-1" d="M1055.43,80.37c-1.92-3.71-4.51-7.02-7.68-9.86-3.25-2.91-7.03-5.53-11.24-7.78-4.42-2.38-8.89-4.56-13.29-6.51l-13.45-5.96c-4.56-2.01-8.68-4.25-12.25-6.65-3.48-2.34-6.4-5.03-8.67-7.99-4.89-6.67-2.91-13.16-2.83-13.42,1.8-5.37,6.64-14.61,18.85-16.21.02,0,2.43-.57,6.16-.57,5.63,0,13.97,1.29,21.67,7.44.08.06,8.26,6.61,10.93,13.21l.64,1.58,7.55-6.69-.69-.92c-.34-.45-8.44-11.17-17.51-15.51-.32-.17-.43-.22-.43-.21-3.22-1.56-6.54-2.63-9.89-3.18-3.37-.55-6.88-.83-10.43-.83-6.33,0-12.44.91-17.19,2.55-4.9,1.7-9.16,4.06-12.67,7.02-3.45,2.91-6.18,6.45-8.13,10.49-1.91,4-2.89,8.4-2.89,13.07,0,5.03.88,9.44,2.61,13.09,1.78,3.76,4.15,7.12,7.05,9.99,2.96,2.93,6.4,5.53,10.2,7.73,4.08,2.35,8.18,4.54,12.18,6.51,4.19,2.06,8.28,4.07,12.31,6,4.13,2,7.92,4.24,11.25,6.68,3.36,2.48,6.13,5.34,8.24,8.51,1.93,2.74,3.38,8,2.98,12.18-.84,6.18-3.56,10.9-8.07,14.05-5.47,3.81-11.98,5.83-18.82,5.83-9.74.22-18.99-4.31-25.79-11.03-4.12-4.08-7.85-9.93-10.56-15.02l-1.55-2.84-9.16,7.67c4.4,5.36,8.71,10.73,14.15,15.08,5.01,4.01,10.69,7.19,16.81,9.12,5.82,1.84,11.97,2.43,18.05,2.43,7.03,0,13.75-1.02,19.45-2.94,5.62-1.9,10.34-4.51,14.01-7.74,3.63-3.19,6.38-7,8.17-11.32,2.42-6.21,4.45-17.36-.09-27.04Z"/>
      </g>
    </g>
  </g>
</svg>