<svg xmlns="http://www.w3.org/2000/svg" width="1600" height="1200" viewBox="0 0 1600 1200" role="img" aria-label="The Livin Ramkhamhaeng hero placeholder">
  <defs>
    <linearGradient id="sky" x1="0" y1="0" x2="1" y2="1">
      <stop offset="0%" stop-color="#dce9ec"/>
      <stop offset="55%" stop-color="#b7cfd4"/>
      <stop offset="100%" stop-color="#8fa8ae"/>
    </linearGradient>
    <linearGradient id="tower" x1="0" y1="0" x2="0" y2="1">
      <stop offset="0%" stop-color="#f4f7f8"/>
      <stop offset="100%" stop-color="#c5d4d8"/>
    </linearGradient>
  </defs>
  <rect width="1600" height="1200" fill="url(#sky)"/>
  <rect x="0" y="860" width="1600" height="340" fill="#6d7c68"/>
  <rect x="620" y="180" width="360" height="780" rx="18" fill="url(#tower)"/>
  <rect x="660" y="230" width="70" height="40" fill="#7f9aa1" opacity="0.75"/>
  <rect x="760" y="230" width="70" height="40" fill="#7f9aa1" opacity="0.75"/>
  <rect x="860" y="230" width="70" height="40" fill="#7f9aa1" opacity="0.75"/>
  <rect x="660" y="320" width="70" height="40" fill="#7f9aa1" opacity="0.75"/>
  <rect x="760" y="320" width="70" height="40" fill="#7f9aa1" opacity="0.75"/>
  <rect x="860" y="320" width="70" height="40" fill="#7f9aa1" opacity="0.75"/>
  <rect x="660" y="410" width="70" height="40" fill="#7f9aa1" opacity="0.75"/>
  <rect x="760" y="410" width="70" height="40" fill="#7f9aa1" opacity="0.75"/>
  <rect x="860" y="410" width="70" height="40" fill="#7f9aa1" opacity="0.75"/>
  <text x="800" y="1120" text-anchor="middle" fill="#243338" font-family="Georgia, serif" font-size="42">The Livin Ramkhamhaeng</text>
  <text x="800" y="1165" text-anchor="middle" fill="#243338" font-family="Helvetica, Arial, sans-serif" font-size="22" opacity="0.8">OG / hero image placeholder</text>
</svg>
